<svg width="20" height="20" viewBox="0 0 20 20" fill="none" xmlns="http://www.w3.org/2000/svg">
<g id="Flag">
<g clip-path="url(#clip0_978_500)">
<path id="Vector" d="M0 0H20V20H0V0Z" fill="#E60033"/>
<g id="Group">
<path id="Vector_2" d="M5.7907 6.10376L6.56767 8.49438H9.0814L7.04932 9.97446L7.82629 12.3651L5.7907 10.8885L3.75511 12.3651L4.53559 9.97446L2.5 8.49438H5.01373L5.7907 6.10376Z" fill="#FFCF26"/>
<path id="Vector_3" d="M11.5357 14.566L10.9416 13.8348L10.0626 14.1758L10.5724 13.3848L9.97827 12.65L10.8888 12.8926L11.4021 12.1016L11.4514 13.0438L12.3654 13.2863L11.483 13.6238L11.5357 14.566Z" fill="#FFCF26"/>
<path id="Vector_4" d="M12.7184 12.4222L12.9997 11.5222L12.2297 10.9773L13.1719 10.9632L13.4497 10.0632L13.7556 10.9562L14.6978 10.9457L13.9419 11.5082L14.2442 12.4011L13.4743 11.8562L12.7184 12.4222Z" fill="#FFCF26"/>
<path id="Vector_5" d="M14.3104 7.23213L13.8956 8.07939L14.5706 8.73682L13.6389 8.60322L13.2241 9.44697L13.0624 8.51885L12.1272 8.38525L12.9639 7.9458L12.8022 7.01416L13.4772 7.67158L14.3104 7.23213Z" fill="#FFCF26"/>
<path id="Vector_6" d="M11.5562 4.66602L11.4859 5.60469L12.3613 5.95977L11.4437 6.18477L11.3769 7.12695L10.8812 6.32539L9.96362 6.55039L10.5718 5.82969L10.0726 5.03164L10.948 5.38672L11.5562 4.66602Z" fill="#FFCF26"/>
</g>
</g>
</g>
<defs>
<clipPath id="clip0_978_500">
<rect width="20" height="20" rx="10" fill="white"/>
</clipPath>
</defs>
</svg>
