<svg width="20" height="20" viewBox="0 0 20 20" fill="none" xmlns="http://www.w3.org/2000/svg">
<circle cx="10" cy="10" r="9.85" fill="white" stroke="#CAD3DF" stroke-width="0.3"/>
<path d="M2.55029 7.01195L4.49661 4.09247L4.98319 4.41686L3.03687 7.33633L2.55029 7.01195ZM3.28016 7.49853L5.22648 4.57905L5.71306 4.90344L3.76674 7.82291L3.28016 7.49853ZM4.01003 7.98511L5.95635 5.06563L6.44293 5.39002L4.49661 8.30949L4.01003 7.98511Z" fill="#323232"/>
<path d="M13.2554 14.1487L15.2017 11.2292L15.6883 11.5536L13.742 14.4731L13.2554 14.1487ZM13.9852 14.6352L15.9316 11.7158L16.4181 12.0402L14.4718 14.9596L13.9852 14.6352ZM14.7151 15.1218L16.6614 12.2023L17.148 12.5267L15.2017 15.4462L14.7151 15.1218Z" fill="#323232"/>
<path d="M13.9858 12.5256L16.4187 14.1475L13.9858 12.5256Z" fill="#323232"/>
<path d="M13.9858 12.5256L16.4187 14.1475" stroke="white" stroke-width="0.292398"/>
<path d="M6.9292 7.82249C7.44539 7.0482 8.24803 6.51068 9.16055 6.32818C10.0731 6.14567 11.0207 6.33314 11.795 6.84934C12.5693 7.36553 13.1068 8.16817 13.2893 9.08068C13.4718 9.9932 13.2843 10.9408 12.7681 11.7151L6.9292 7.82249Z" fill="#E60033"/>
<path d="M6.9302 7.82197C6.41401 8.59626 6.22654 9.5439 6.40904 10.4564C6.59155 11.3689 7.12907 12.1716 7.90336 12.6878C8.67765 13.204 9.62529 13.3914 10.5378 13.2089C11.4503 13.0264 12.253 12.4889 12.7692 11.7146C13.0273 11.3275 13.121 10.8536 13.0297 10.3974C12.9385 9.94112 12.6697 9.5398 12.2826 9.2817C11.8954 9.0236 11.4216 8.92987 10.9654 9.02112C10.5091 9.11237 10.1078 9.38114 9.84968 9.76828L6.9302 7.82197Z" fill="#0061AF"/>
<path d="M9.84918 9.76903C10.3866 8.96284 10.1688 7.8736 9.3626 7.33614C8.55641 6.79868 7.46716 7.01653 6.9297 7.82272C6.39224 8.62891 6.61009 9.71815 7.41628 10.2556C8.22247 10.7931 9.31172 10.5752 9.84918 9.76903Z" fill="#E60033"/>
<path d="M4.49609 15.4453L2.54978 12.5258L3.03636 12.2014L4.98267 15.1209L4.49609 15.4453ZM5.22596 14.9587L3.27965 12.0392L3.76623 11.7149L5.71254 14.6343L5.22596 14.9587ZM5.95583 14.4721L4.00951 11.5527L4.49609 11.2283L6.44241 14.1478L5.95583 14.4721Z" fill="#323232"/>
<path d="M15.1992 8.30859L13.2529 5.38912L13.7395 5.06473L15.6858 7.98421L15.1992 8.30859ZM15.9291 7.82201L13.9828 4.90254L14.4694 4.57815L16.4157 7.49763L15.9291 7.82201ZM16.659 7.33544L14.7126 4.41596L15.1992 4.09157L17.1455 7.01105L16.659 7.33544Z" fill="#323232"/>
<path d="M4.13086 13.5802L4.86073 13.0936L4.13086 13.5802ZM13.9841 7.01134L14.8356 6.44366L13.9841 7.01134ZM15.5655 5.95708L16.2953 5.4705L15.5655 5.95708Z" fill="#323232"/>
<path d="M4.13086 13.5802L4.86073 13.0936M13.9841 7.01134L14.8356 6.44366M15.5655 5.95708L16.2953 5.4705" stroke="white" stroke-width="0.292398"/>
</svg>
