<svg width="108" height="44" viewBox="0 0 108 44" fill="none" xmlns="http://www.w3.org/2000/svg">
<g clip-path="url(#clip0_533_5578)">
<path d="M34.7784 40.4155C34.4056 40.6096 33.4506 40.8361 32.2471 40.8361C28.4729 40.8361 26.8115 38.5067 26.8115 35.8408C26.8115 32.3143 29.4214 30.522 32.4237 30.522C33.5749 30.522 34.5168 30.742 34.942 30.962L34.4121 33.0649C33.9804 32.8902 33.3525 32.709 32.5414 32.709C30.9978 32.709 29.6503 33.6149 29.6503 35.6531C29.6503 37.4779 30.7427 38.5973 32.6003 38.5973C33.2478 38.5973 33.9739 38.4808 34.3991 38.319L34.7719 40.409L34.7784 40.4155Z" fill="#0061AF"/>
<path d="M35.6543 30.4185H38.3623V34.4238H38.395C38.6304 34.1261 38.9379 33.8996 39.2649 33.7379C39.592 33.5761 39.9975 33.4855 40.3834 33.4855C42.0448 33.4855 42.9737 34.6567 42.9737 36.7208V40.9461H40.2657V37.0249C40.2657 36.1643 39.9844 35.6467 39.3107 35.6467C38.8005 35.6467 38.5585 35.9443 38.4277 36.229C38.3819 36.3455 38.3688 36.5396 38.3688 36.6561V40.9526H35.6608V30.4249H35.6543V30.4185Z" fill="#0061AF"/>
<path d="M46.8859 31.6672C46.8859 32.366 46.343 32.9225 45.4992 32.9225C44.6554 32.9225 44.1387 32.3595 44.1387 31.6672C44.1387 30.923 44.6816 30.3989 45.5123 30.3989C46.343 30.3989 46.8663 30.9295 46.8859 31.6672ZM44.1452 40.9525V33.6666H46.8532V40.9525H44.1452Z" fill="#0061AF"/>
<path d="M48.0764 36.2613C48.0764 35.2843 48.0437 34.456 48.0176 33.7702H50.3592L50.477 34.7019H50.5228C50.791 34.3202 51.5105 33.6084 52.7336 33.6084C54.4539 33.6084 55.4023 34.7602 55.4023 36.766V41.0625H52.6944V37.0896C52.6944 36.2419 52.4131 35.7502 51.7525 35.7502C51.2227 35.7502 50.9872 36.106 50.8694 36.3908C50.8106 36.5202 50.7975 36.7272 50.7975 36.9278V41.0625H48.0895V36.2678H48.0764V36.2613Z" fill="#0061AF"/>
<path d="M63.4668 39.2053C63.4668 39.93 63.5126 40.6159 63.5846 40.9848H61.1579L61.027 40.3442H60.9682C60.458 40.9265 59.7254 41.1465 58.9339 41.1465C57.423 41.1465 56.4941 40.0659 56.4941 38.8495C56.4941 36.8953 58.2798 36.0218 60.7719 36.0218V35.9636C60.7719 35.6659 60.5495 35.3424 59.5619 35.3424C58.7835 35.3424 57.9724 35.6077 57.4818 35.8795L57.024 34.2036C57.4818 33.9512 58.548 33.5371 60.0786 33.5371C62.61 33.5371 63.4734 34.9348 63.4734 36.753V39.2053H63.4668ZM60.8635 37.6395C59.7581 37.6395 59.1432 37.9371 59.1432 38.5842C59.1432 39.0371 59.4376 39.283 59.9085 39.283C60.2944 39.283 60.7 39.0177 60.8374 38.5971C60.8701 38.4936 60.8701 38.3642 60.8701 38.2283V37.6395H60.8635Z" fill="#0061AF"/>
<path d="M72.9912 34.9993C71.8073 34.6111 71.3102 34.3717 71.3102 33.854C71.3102 33.4852 71.526 33.0387 72.5595 33.0387C73.3837 33.0387 74.2274 33.3364 74.5937 33.4787L75.0581 31.5375C74.7311 31.4146 73.7107 31.0781 72.4025 31.0781C69.9627 31.0781 68.3209 32.3399 68.3209 34.2099C68.3013 35.4522 69.2563 36.4164 71.0812 36.9987C72.1867 37.3287 72.5595 37.5293 72.5595 38.0793C72.5595 38.8752 71.611 38.8752 71.2055 38.8752C70.3748 38.8752 69.289 38.5646 68.6153 38.254L68.1182 40.2922C68.9358 40.6611 70.1001 40.8811 71.2448 40.8811C73.9396 40.8811 75.5553 39.7358 75.5553 37.8205C75.5291 36.4293 74.7376 35.5558 72.9912 34.9928V34.9993Z" fill="#0061AF"/>
<path d="M76.2021 30.4634H78.9101V34.4687H78.9428C79.1783 34.171 79.4857 33.9446 79.8128 33.7828C80.1398 33.621 80.5454 33.5304 80.9313 33.5304C82.5927 33.5304 83.5215 34.7016 83.5215 36.7657V40.991H80.8135V37.0698C80.8135 36.2093 80.5323 35.6916 79.8586 35.6916C79.3484 35.6916 79.1063 35.9893 78.9755 36.274C78.9297 36.3904 78.9167 36.5846 78.9167 36.701V40.9975H76.2021V30.4698V30.4634Z" fill="#0061AF"/>
<path d="M92.0056 37.2578C92.0056 39.9108 90.0891 41.1402 88.0222 41.1402C85.8244 41.1402 84.1172 39.762 84.1172 37.3937C84.1172 35.0255 85.6609 33.5308 88.1726 33.5308C90.4816 33.5243 92.0056 35.0708 92.0056 37.2578ZM86.8971 37.329C86.8971 38.4225 87.2569 39.2573 88.0941 39.2573C88.8267 39.2573 89.2126 38.5002 89.2126 37.329C89.2126 36.3196 88.8856 35.4008 88.0941 35.4008C87.198 35.4073 86.8971 36.3714 86.8971 37.329Z" fill="#0061AF"/>
<path d="M92.764 36.2613C92.764 35.2843 92.7312 34.456 92.7051 33.7702H95.0206L95.1383 34.7019H95.171C95.727 33.9772 96.5446 33.6084 97.565 33.6084C99.0891 33.6084 100.587 34.9608 100.587 37.329C100.587 39.9949 98.834 41.2243 97.238 41.2243C96.4007 41.2243 95.7532 40.9008 95.485 40.5255H95.4523V43.9937H92.7574V36.2549L92.764 36.2613ZM95.4654 37.8725C95.4654 38.0343 95.4785 38.1831 95.5112 38.3125C95.6158 38.7913 96.0214 39.186 96.5577 39.186C97.3688 39.186 97.8594 38.5002 97.8594 37.4519C97.8594 36.4037 97.4408 35.6855 96.5904 35.6855C96.0475 35.6855 95.5897 36.106 95.4981 36.6172C95.4654 36.7208 95.4654 36.8372 95.4654 36.9537V37.866V37.8725Z" fill="#0061AF"/>
<path d="M19.95 0.316895L15.4563 18.4734L10.9561 0.316895H1.78569L0 27.3316H5.8738L7.27357 6.14689L12.5064 26.8981H18.3998L23.6326 6.14689L25.0323 27.3316H30.9061L29.1139 0.316895H19.95Z" fill="#0061AF"/>
<path d="M37.4406 18.493C37.8527 23.5854 45.8654 22.7054 49.3387 21.6183L50.2021 26.0248C42.0912 29.0983 31.2725 27.0924 31.2725 16.6554C31.2725 2.73713 51.3664 1.22948 51.3664 15.9307C51.3664 17.0371 51.2421 18.0207 51.157 18.493H37.4471H37.4406ZM45.2636 14.0412C45.2636 8.28889 37.4275 8.21124 37.4799 14.0412H45.2636Z" fill="#E60033"/>
<path d="M58.6065 14.0414C58.5542 8.21137 66.3903 8.28901 66.3903 14.0414H58.6065ZM52.3991 16.649C52.3991 27.0861 63.2245 29.0855 71.3287 26.0184L70.4653 21.612C66.9921 22.699 58.9859 23.579 58.5673 18.4867H72.2772C72.3622 18.0208 72.4865 17.0308 72.4865 15.9243C72.4865 1.22313 52.3926 2.73078 52.3926 16.649H52.3991Z" fill="#0061AF"/>
<path d="M100.424 6.14697H96.8721V10.5534H100.398L101.634 8.33403L100.424 6.14697Z" fill="#0061AF"/>
<path d="M95.8384 18.3182V0.310547H89.8403V6.14702H87.2108L86.7529 10.56H89.8468V19.3082C89.8468 23.9023 91.0176 27.3317 96.1523 27.3317C98.01 27.3317 99.5471 26.8658 100.404 26.5229V21.6053C97.3362 22.1682 95.8384 22.3688 95.8384 18.3182Z" fill="#0061AF"/>
<path d="M79.2309 11.7506C79.2309 9.10411 84.2086 9.95823 85.7195 10.56L86.1905 6.15352C81.1474 4.60705 73.3244 5.75882 73.3244 12.3329C73.2197 18.81 82.8677 17.93 82.8677 21.0165C82.8677 24.2712 75.3128 22.6082 73.6645 21.6182L72.8076 26.0247C78.4198 28.4771 89.0816 27.9335 88.8003 20.5635C88.6957 13.42 79.2309 14.6818 79.2309 11.7571V11.7506Z" fill="#0061AF"/>
<path d="M103.471 0L107.926 8.12706L103.471 16.2865H99.0234L103.478 8.12706L99.0234 0H103.471Z" fill="#E60033"/>
</g>
<defs>
<clipPath id="clip0_533_5578">
<rect width="108" height="44" fill="white"/>
</clipPath>
</defs>
</svg>
