<svg width="48" height="48" viewBox="0 0 48 48" fill="none" xmlns="http://www.w3.org/2000/svg">
<rect width="48" height="48" rx="16" fill="#F4F9FD"/>
<path d="M13 22.5209C13 18.5238 13 16.5253 13.4719 15.853C13.9438 15.1807 15.8229 14.5375 19.5811 13.251L20.2971 13.0059C22.2562 12.3353 23.2358 12 24.25 12C25.2642 12 26.2438 12.3353 28.2029 13.0059L28.9189 13.251C32.6771 14.5375 34.5562 15.1807 35.0281 15.853C35.5 16.5253 35.5 18.5238 35.5 22.5209C35.5 23.1245 35.5 23.7792 35.5 24.4892C35.5 31.5367 30.2013 34.9569 26.8768 36.4091C25.975 36.803 25.5241 37 24.25 37C22.9759 37 22.525 36.803 21.6232 36.4091C18.2987 34.9569 13 31.5367 13 24.4892C13 23.7792 13 23.1245 13 22.5209Z" stroke="#0061AF" stroke-width="1.5"/>
<path d="M22.8266 19.9542C23.4599 18.8181 23.7766 18.25 24.25 18.25C24.7234 18.25 25.0401 18.8181 25.6734 19.9542L25.8372 20.2481C26.0172 20.571 26.1072 20.7324 26.2475 20.8389C26.3879 20.9454 26.5626 20.9849 26.912 21.064L27.2302 21.136C28.4601 21.4143 29.075 21.5534 29.2212 22.0239C29.3676 22.4944 28.9484 22.9845 28.11 23.965L27.893 24.2186C27.6547 24.4973 27.5356 24.6365 27.4821 24.8089C27.4285 24.9812 27.4465 25.167 27.4825 25.5388L27.5152 25.8772C27.642 27.1852 27.7055 27.8394 27.3224 28.1301C26.9394 28.4209 26.3636 28.1557 25.2121 27.6256L24.9142 27.4884C24.587 27.3378 24.4234 27.2624 24.25 27.2624C24.0766 27.2624 23.913 27.3378 23.5857 27.4884L23.2879 27.6256C22.1364 28.1557 21.5606 28.4209 21.1776 28.1301C20.7946 27.8394 20.8579 27.1852 20.9847 25.8772L21.0175 25.5388C21.0535 25.167 21.0715 24.9812 21.0179 24.8089C20.9643 24.6365 20.8452 24.4973 20.607 24.2186L20.39 23.965C19.5516 22.9845 19.1324 22.4944 19.2787 22.0239C19.425 21.5534 20.0399 21.4143 21.2698 21.136L21.5879 21.064C21.9374 20.9849 22.1121 20.9454 22.2525 20.8389C22.3927 20.7324 22.4827 20.571 22.6627 20.2481L22.8266 19.9542Z" stroke="#0061AF" stroke-width="1.5"/>
</svg>
