<svg width="48" height="48" viewBox="0 0 48 48" fill="none" xmlns="http://www.w3.org/2000/svg">
<rect width="48" height="48" rx="16" fill="#F4F9FD"/>
<path d="M38.881 25.6361C38.5398 25.8921 38.0556 25.8229 37.7997 25.4817C36.4926 23.7245 34.4286 22.6925 32.2386 22.7011C31.6441 22.7011 31.2724 22.0575 31.5697 21.5426C31.7077 21.3036 31.9627 21.1564 32.2386 21.1564C34.8151 21.1558 36.4248 18.3663 35.1361 16.1353C33.8474 13.9043 30.6267 13.905 29.339 16.1366C29.1878 16.3986 29.0729 16.6798 28.9972 16.9727C28.8486 17.5484 28.1324 17.7474 27.7081 17.3308C27.5112 17.1374 27.4324 16.8537 27.5014 16.5865C28.4391 12.9395 32.9732 11.6752 35.6627 14.3108C37.7889 16.3943 37.5768 19.8779 35.2135 21.688C36.7366 22.2564 38.0636 23.2517 39.0355 24.5548C39.2914 24.8961 39.2223 25.3802 38.881 25.6361ZM31.8769 33.9005C32.0907 34.2699 31.9644 34.7425 31.595 34.9561C31.4779 35.0247 31.3445 35.0607 31.2088 35.0604C30.9327 35.0606 30.6775 34.9133 30.5394 34.6742C27.6005 29.6948 20.3969 29.6948 17.458 34.6742C17.1824 35.201 16.4398 35.232 16.1214 34.7299C15.961 34.4771 15.9612 34.1544 16.1218 33.9018C17.1738 32.0943 18.821 30.7083 20.7818 29.9807C16.9586 27.4984 17.2563 21.8082 21.3176 19.7384C25.379 17.6685 30.158 20.7715 29.9199 25.3236C29.8208 27.2169 28.8212 28.9483 27.2311 29.9807C29.1864 30.7108 30.8282 32.096 31.8769 33.9005ZM24 29.395C27.3692 29.395 29.475 25.7477 27.7904 22.8299C26.1058 19.912 21.8942 19.912 20.2096 22.8299C19.8254 23.4952 19.6232 24.25 19.6232 25.0182C19.6232 27.4355 21.5828 29.395 24 29.395ZM16.5337 21.9288C16.5337 21.5022 16.1879 21.1564 15.7613 21.1564C13.1849 21.1556 11.5754 18.3659 12.8644 16.135C14.1533 13.9042 17.3739 13.9052 18.6615 16.1369C18.8123 16.3984 18.9271 16.6791 19.0027 16.9714C19.1514 17.5472 19.8675 17.7461 20.2918 17.3295C20.4887 17.1361 20.5675 16.8524 20.4986 16.5852C19.5608 12.9382 15.0268 11.6739 12.3372 14.3095C10.2111 16.393 10.4232 19.8766 12.7864 21.6867C11.2632 22.2555 9.93623 23.2512 8.96446 24.5548C8.60772 25.0305 8.89968 25.714 9.48997 25.7851C9.76394 25.8181 10.0347 25.7024 10.2003 25.4817C11.5074 23.7245 13.5713 22.6925 15.7613 22.7011C16.1879 22.7011 16.5337 22.3553 16.5337 21.9288Z" fill="#0061AF"/>
</svg>
