<svg width="48" height="48" viewBox="0 0 48 48" fill="none" xmlns="http://www.w3.org/2000/svg">
<rect width="48" height="48" rx="16" fill="#F4F9FD"/>
<path d="M28.8335 29.5226L31.5955 32.2846L37.1197 26.7605" stroke="#0061AF" stroke-width="1.5" stroke-linecap="round" stroke-linejoin="round"/>
<path d="M35.739 21.2363V18.4742C35.738 17.4886 35.2118 16.578 34.358 16.0851L24.6907 10.561C23.8362 10.0676 22.7832 10.0676 21.9286 10.561L12.2614 16.0851C11.4076 16.578 10.8814 17.4884 10.8804 18.4742V29.5226C10.8814 30.5083 11.4076 31.4189 12.2614 31.9118L21.9286 37.4359C22.7832 37.9293 23.8362 37.9293 24.6907 37.4359L27.4528 35.8615" stroke="#0061AF" stroke-width="1.5" stroke-linecap="round" stroke-linejoin="round"/>
<path d="M17.0947 13.323L29.5242 20.4353" stroke="#0061AF" stroke-width="1.5" stroke-linecap="round" stroke-linejoin="round"/>
<path d="M11.2808 17.0933L23.3095 23.9985L35.3384 17.0934" stroke="#0061AF" stroke-width="1.5" stroke-linecap="round" stroke-linejoin="round"/>
<path d="M23.3096 37.8089V23.9985" stroke="#0061AF" stroke-width="1.5" stroke-linecap="round" stroke-linejoin="round"/>
</svg>
