<svg width="48" height="48" viewBox="0 0 48 48" fill="none" xmlns="http://www.w3.org/2000/svg">
<rect width="48" height="48" rx="16" fill="#F4F9FD"/>
<path d="M17.3333 26.6685H30.6667M17.3333 26.6685V23.4685C17.3333 22.7217 17.3333 22.3483 17.4787 22.0631C17.6065 21.8122 17.8105 21.6082 18.0613 21.4805C18.3466 21.3351 18.7199 21.3351 19.4667 21.3351H28.5333C29.2801 21.3351 29.6535 21.3351 29.9387 21.4805C30.1896 21.6082 30.3935 21.8122 30.5213 22.0631C30.6667 22.3483 30.6667 22.7217 30.6667 23.4685V26.6685M17.3333 26.6685V32.0018V36.0018M30.6667 26.6685V32.0018V36.0018M32.4621 16.2328L26.8621 13.4328C25.8127 12.9081 25.288 12.6457 24.7376 12.5425C24.2501 12.451 23.7499 12.451 23.2624 12.5425C22.712 12.6457 22.1873 12.9081 21.1378 13.4328L15.5378 16.2328C14.2536 16.8749 13.6115 17.196 13.1423 17.675C12.7275 18.0986 12.4119 18.6091 12.2186 19.1696C12 19.8034 12 20.5213 12 21.9571V33.8685C12 34.6151 12 34.9885 12.1453 35.2738C12.2732 35.5246 12.4771 35.7286 12.728 35.8565C13.0132 36.0018 13.3866 36.0018 14.1333 36.0018H33.8667C34.6135 36.0018 34.9868 36.0018 35.272 35.8565C35.5229 35.7286 35.7268 35.5246 35.8547 35.2738C36 34.9885 36 34.6151 36 33.8685V21.9571C36 20.5213 36 19.8034 35.7813 19.1696C35.588 18.6091 35.2725 18.0986 34.8577 17.675C34.3885 17.196 33.7464 16.8749 32.4621 16.2328Z" stroke="#0061AF" stroke-width="1.5" stroke-linecap="round" stroke-linejoin="round"/>
</svg>
