<svg width="48" height="48" viewBox="0 0 48 48" fill="none" xmlns="http://www.w3.org/2000/svg">
<path d="M9 10.6665L9.39246 10.7973C11.3481 11.4492 12.3259 11.7751 12.8851 12.5511C13.4444 13.327 13.4444 14.3577 13.4444 16.4191V20.2961C13.4444 24.4863 13.4444 26.5814 14.7462 27.8832C16.0479 29.1849 18.143 29.1849 22.3333 29.1849H34.185" stroke="#0061AF" stroke-width="1.5" stroke-linecap="round"/>
<path d="M17.148 32.8887C18.3753 32.8887 19.3702 33.8836 19.3702 35.1109C19.3702 36.3381 18.3753 37.3331 17.148 37.3331C15.9207 37.3331 14.9258 36.3381 14.9258 35.1109C14.9258 33.8836 15.9207 32.8887 17.148 32.8887Z" stroke="#0061AF" stroke-width="1.5"/>
<path d="M30.4812 32.8887C31.7085 32.8887 32.7035 33.8835 32.7035 35.1109C32.7035 36.3381 31.7085 37.3331 30.4812 37.3331C29.254 37.3331 28.259 36.3381 28.259 35.1109C28.259 33.8835 29.254 32.8887 30.4812 32.8887Z" stroke="#0061AF" stroke-width="1.5"/>
<path d="M13.4443 15.1108H30.4078C33.4522 15.1108 34.9743 15.1108 35.6331 16.1097C36.2918 17.1087 35.6921 18.5078 34.4928 21.3061L33.8579 22.7875C33.298 24.0939 33.018 24.7471 32.4614 25.1142C31.9048 25.4812 31.1942 25.4812 29.7728 25.4812H13.4443" stroke="#0061AF" stroke-width="1.5"/>
<rect x="28" width="20" height="20" rx="10" fill="#E60033"/>
<path d="M37.8081 14.12C37.2161 14.12 36.6361 14.036 36.0681 13.868C35.5081 13.692 35.0361 13.452 34.6521 13.148L35.3121 11.936C35.6161 12.184 35.9841 12.384 36.4161 12.536C36.8561 12.688 37.3121 12.764 37.7841 12.764C38.3361 12.764 38.7681 12.648 39.0801 12.416C39.4001 12.184 39.5601 11.872 39.5601 11.48C39.5601 11.216 39.4921 10.984 39.3561 10.784C39.2281 10.584 38.9961 10.432 38.6601 10.328C38.3321 10.224 37.8801 10.172 37.3041 10.172H35.2761L35.7081 5.6H40.6401V6.908H36.2841L37.1001 6.164L36.7761 9.584L35.9601 8.852H37.6521C38.4841 8.852 39.1521 8.964 39.6561 9.188C40.1681 9.404 40.5401 9.708 40.7721 10.1C41.0121 10.484 41.1321 10.924 41.1321 11.42C41.1321 11.908 41.0121 12.356 40.7721 12.764C40.5321 13.172 40.1641 13.5 39.6681 13.748C39.1801 13.996 38.5601 14.12 37.8081 14.12Z" fill="white"/>
</svg>
