<svg width="24" height="24" viewBox="0 0 24 24" fill="none" xmlns="http://www.w3.org/2000/svg">
<path d="M6.4 10.4H8C9.6 10.4 10.4 9.6 10.4 8V6.4C10.4 4.8 9.6 4 8 4H6.4C4.8 4 4 4.8 4 6.4V8C4 9.6 4.8 10.4 6.4 10.4Z" stroke="white" stroke-width="1.5" stroke-miterlimit="10" stroke-linecap="round" stroke-linejoin="round"/>
<path d="M16.0001 10.4H17.6001C19.2001 10.4 20.0001 9.6 20.0001 8V6.4C20.0001 4.8 19.2001 4 17.6001 4H16.0001C14.4001 4 13.6001 4.8 13.6001 6.4V8C13.6001 9.6 14.4001 10.4 16.0001 10.4Z" stroke="white" stroke-width="1.5" stroke-miterlimit="10" stroke-linecap="round" stroke-linejoin="round"/>
<path d="M16.0001 20.0001H17.6001C19.2001 20.0001 20.0001 19.2001 20.0001 17.6001V16.0001C20.0001 14.4001 19.2001 13.6001 17.6001 13.6001H16.0001C14.4001 13.6001 13.6001 14.4001 13.6001 16.0001V17.6001C13.6001 19.2001 14.4001 20.0001 16.0001 20.0001Z" stroke="white" stroke-width="1.5" stroke-miterlimit="10" stroke-linecap="round" stroke-linejoin="round"/>
<path d="M6.4 20.0001H8C9.6 20.0001 10.4 19.2001 10.4 17.6001V16.0001C10.4 14.4001 9.6 13.6001 8 13.6001H6.4C4.8 13.6001 4 14.4001 4 16.0001V17.6001C4 19.2001 4.8 20.0001 6.4 20.0001Z" stroke="white" stroke-width="1.5" stroke-miterlimit="10" stroke-linecap="round" stroke-linejoin="round"/>
</svg>
