<svg width="49" height="48" viewBox="0 0 49 48" fill="none" xmlns="http://www.w3.org/2000/svg">
<path d="M23.9971 15.3442L23.4948 15.9012C23.7802 16.1586 24.214 16.1586 24.4994 15.9012L23.9971 15.3442ZM10.6667 19.8604H11.4167V19.8604L10.6667 19.8604ZM12.7459 25.8819L12.1188 26.2932V26.2932L12.7459 25.8819ZM35.0974 25.8819L34.4703 25.4705L35.0974 25.8819ZM37.3275 19.8604L36.578 19.8328L37.3275 19.8604ZM23.9971 15.3442C24.4994 14.7873 24.4993 14.7872 24.4992 14.7871C24.4991 14.7871 24.499 14.7869 24.4989 14.7868C24.4986 14.7866 24.4983 14.7863 24.498 14.786C24.4973 14.7854 24.4964 14.7846 24.4953 14.7836C24.4931 14.7817 24.4901 14.779 24.4863 14.7756C24.4788 14.7689 24.468 14.7593 24.4542 14.7472C24.4267 14.723 24.3869 14.6883 24.3359 14.6448C24.234 14.5577 24.0871 14.4347 23.9033 14.2878C23.5363 13.9947 23.0181 13.603 22.4136 13.2101C21.2444 12.4499 19.6023 11.5835 18.0725 11.5835V13.0835C19.1295 13.0835 20.4497 13.7224 21.5961 14.4677C22.1494 14.8274 22.6273 15.1884 22.967 15.4598C23.1365 15.5952 23.2706 15.7074 23.3613 15.785C23.4067 15.8238 23.4412 15.8538 23.4637 15.8737C23.475 15.8836 23.4833 15.891 23.4886 15.8956C23.4912 15.8979 23.493 15.8996 23.494 15.9005C23.4946 15.901 23.4949 15.9013 23.495 15.9014C23.4951 15.9014 23.4951 15.9014 23.495 15.9014C23.495 15.9014 23.4949 15.9013 23.4949 15.9013C23.4949 15.9012 23.4948 15.9012 23.9971 15.3442ZM18.0725 11.5835C13.5805 11.5835 9.91664 14.9179 9.91675 19.8604L11.4167 19.8604C11.4167 15.7706 14.3843 13.0835 18.0725 13.0835V11.5835ZM9.91675 19.8604C9.91675 22.0044 10.7451 24.1989 12.1188 26.2932L13.3731 25.4705C12.101 23.5312 11.4167 21.6209 11.4167 19.8604H9.91675ZM12.1188 26.2932C12.5754 26.9893 13.4643 27.9613 14.5076 28.9953C15.5656 30.0439 16.8282 31.2007 18.072 32.2766C19.3149 33.3517 20.5486 34.3544 21.549 35.0922C22.0477 35.4599 22.5005 35.7708 22.8738 35.9931C23.0597 36.1038 23.2396 36.2007 23.4045 36.2723C23.546 36.3337 23.7642 36.4168 23.997 36.4168V34.9168C24.0891 34.9168 24.1091 34.9429 24.0018 34.8964C23.9179 34.8599 23.7983 34.7978 23.6412 34.7042C23.3284 34.518 22.9204 34.2397 22.4393 33.8849C21.4802 33.1776 20.2781 32.2016 19.0533 31.1421C17.8295 30.0834 16.5926 28.9498 15.5635 27.9299C14.5198 26.8956 13.7342 26.0211 13.3731 25.4705L12.1188 26.2932ZM23.997 36.4168C24.2307 36.4168 24.4488 36.3332 24.5901 36.2713C24.7544 36.1993 24.9331 36.1019 25.1172 35.991C25.4868 35.7683 25.9339 35.457 26.4256 35.0891C27.4121 34.3509 28.627 33.3479 29.851 32.2728C31.0758 31.1968 32.3194 30.0401 33.3629 28.9917C34.3925 27.9572 35.2697 26.9867 35.7245 26.2932L34.4703 25.4705C34.1074 26.0237 33.3288 26.8996 32.2997 27.9335C31.2844 28.9536 30.0661 30.0873 28.861 31.1459C27.655 32.2053 26.4718 33.1811 25.527 33.888C25.053 34.2427 24.6512 34.5205 24.343 34.7063C24.1881 34.7996 24.0706 34.8613 23.9883 34.8974C23.883 34.9434 23.904 34.9168 23.997 34.9168V36.4168ZM35.7245 26.2932C36.6447 24.8905 37.9779 22.577 38.077 19.888L36.578 19.8328C36.4949 22.09 35.3614 24.112 34.4703 25.4705L35.7245 26.2932ZM38.077 19.888C38.2644 14.7974 34.379 11.5835 29.9217 11.5835V13.0835C33.6446 13.0835 36.73 15.7029 36.578 19.8328L38.077 19.888ZM29.9217 11.5835C28.392 11.5835 26.7498 12.4499 25.5806 13.2101C24.9761 13.603 24.4579 13.9947 24.091 14.2878C23.9071 14.4347 23.7602 14.5577 23.6583 14.6448C23.6073 14.6883 23.5675 14.723 23.54 14.7472C23.5262 14.7593 23.5154 14.7689 23.5079 14.7756C23.5041 14.779 23.5011 14.7817 23.4989 14.7836C23.4978 14.7846 23.4969 14.7854 23.4962 14.786C23.4959 14.7863 23.4956 14.7866 23.4953 14.7868C23.4952 14.7869 23.4951 14.7871 23.495 14.7871C23.4949 14.7872 23.4948 14.7873 23.9971 15.3442C24.4994 15.9012 24.4994 15.9012 24.4993 15.9013C24.4993 15.9013 24.4992 15.9014 24.4992 15.9014C24.4991 15.9014 24.4992 15.9014 24.4992 15.9014C24.4993 15.9013 24.4997 15.901 24.5002 15.9005C24.5012 15.8996 24.503 15.8979 24.5057 15.8956C24.5109 15.891 24.5192 15.8836 24.5305 15.8737C24.5531 15.8538 24.5875 15.8238 24.6329 15.785C24.7236 15.7074 24.8577 15.5952 25.0272 15.4598C25.3669 15.1884 25.8448 14.8274 26.3981 14.4677C27.5445 13.7224 28.8647 13.0835 29.9217 13.0835V11.5835Z" fill="#0061AF"/>
<rect x="28" width="21" height="20" rx="10" fill="#E60033"/>
<path d="M34.0497 14V6.2L34.7337 6.908H32.2737V5.6H35.6097V14H34.0497ZM40.78 14.12C40.116 14.12 39.516 13.952 38.98 13.616C38.452 13.28 38.036 12.792 37.732 12.152C37.428 11.504 37.276 10.72 37.276 9.8C37.276 8.88 37.428 8.1 37.732 7.46C38.036 6.812 38.452 6.32 38.98 5.984C39.516 5.648 40.116 5.48 40.78 5.48C41.452 5.48 42.052 5.648 42.58 5.984C43.108 6.32 43.524 6.812 43.828 7.46C44.14 8.1 44.296 8.88 44.296 9.8C44.296 10.72 44.14 11.504 43.828 12.152C43.524 12.792 43.108 13.28 42.58 13.616C42.052 13.952 41.452 14.12 40.78 14.12ZM40.78 12.764C41.172 12.764 41.512 12.66 41.8 12.452C42.088 12.236 42.312 11.908 42.472 11.468C42.64 11.028 42.724 10.472 42.724 9.8C42.724 9.12 42.64 8.564 42.472 8.132C42.312 7.692 42.088 7.368 41.8 7.16C41.512 6.944 41.172 6.836 40.78 6.836C40.404 6.836 40.068 6.944 39.772 7.16C39.484 7.368 39.256 7.692 39.088 8.132C38.928 8.564 38.848 9.12 38.848 9.8C38.848 10.472 38.928 11.028 39.088 11.468C39.256 11.908 39.484 12.236 39.772 12.452C40.068 12.66 40.404 12.764 40.78 12.764Z" fill="white"/>
</svg>
