<svg width="48" height="48" viewBox="0 0 48 48" fill="none" xmlns="http://www.w3.org/2000/svg">
<path d="M20.4912 21.8946C23.5918 21.8946 26.1053 19.3811 26.1053 16.2805C26.1053 13.18 23.5918 10.6665 20.4912 10.6665C17.3907 10.6665 14.8772 13.18 14.8772 16.2805C14.8772 19.3811 17.3907 21.8946 20.4912 21.8946Z" stroke="#0061AF" stroke-width="1.5"/>
<path d="M28.9124 20.4909C31.2378 20.4909 33.1229 18.6058 33.1229 16.2804C33.1229 13.9549 31.2378 12.0698 28.9124 12.0698" stroke="#0061AF" stroke-width="1.5" stroke-linecap="round"/>
<path d="M20.4913 37.333C25.9173 37.333 30.3159 34.8196 30.3159 31.719C30.3159 28.6185 25.9173 26.105 20.4913 26.105C15.0654 26.105 10.6667 28.6185 10.6667 31.719C10.6667 34.8196 15.0654 37.333 20.4913 37.333Z" stroke="#0061AF" stroke-width="1.5"/>
<path d="M33.1228 27.5088C35.5848 28.0487 37.3333 29.416 37.3333 31.0176C37.3333 32.4622 35.9106 33.7164 33.8246 34.3444" stroke="#0061AF" stroke-width="1.5" stroke-linecap="round"/>
</svg>
