<svg aria-hidden="true" style="position: absolute; width: 0; height: 0; overflow: hidden;" version="1.1" xmlns="http://www.w3.org/2000/svg">
<defs>
<symbol id="icon-chevron_down_small" viewBox="0 0 24 24" fill="none">
    <path vector-effect="non-scaling-stroke" d="M17 10L12 14L7 10" stroke="currentColor" stroke-width="1.5" stroke-linecap="round" stroke-linejoin="round"/>
</symbol>
<symbol id="icon-arrow_left" viewBox="0 0 24 24" fill="none">
    <path vector-effect="non-scaling-stroke" d="M20 12H4M4 12L10 6M4 12L10 18" stroke="currentColor" stroke-width="1.5" stroke-linecap="round" stroke-linejoin="round"/>
</symbol>
<symbol id="icon-arrow_right" viewBox="0 0 24 24" fill="none">
    <path vector-effect="non-scaling-stroke" d="M4 12H20M20 12L14 6M20 12L14 18" stroke="currentColor" stroke-width="1.5" stroke-linecap="round" stroke-linejoin="round"/>
</symbol>
<symbol id="icon-arrow_right_up" viewBox="0 0 24 24" fill="none">
    <path vector-effect="non-scaling-stroke" d="M6 18L18 6M18 6H9M18 6V15" stroke="currentColor" stroke-width="1.5" stroke-linecap="round" stroke-linejoin="round"/>
</symbol>
<symbol id="icon-basket" viewBox="0 0 24 24" fill="none">
    <path vector-effect="non-scaling-stroke" d="M4.82059 13.5814C4.19446 10.6085 3.8814 9.12216 4.66621 8.13445C5.45103 7.14673 6.94517 7.14673 9.93344 7.14673H14.4269C17.4153 7.14673 18.9093 7.14673 19.6942 8.13445C20.479 9.12216 20.1659 10.6085 19.5398 13.5814L19.1663 15.3548C18.7419 17.3697 18.5297 18.3773 17.8107 18.9687C17.0916 19.5601 16.0789 19.5601 14.0534 19.5601H10.3069C8.28148 19.5601 7.26875 19.5601 6.54971 18.9687C5.83067 18.3773 5.61848 17.3697 5.19409 15.3548L4.82059 13.5814Z" stroke="currentColor" stroke-width="1.5"/>
    <path vector-effect="non-scaling-stroke" d="M4.33691 10.6934H20.0237" stroke="currentColor" stroke-width="1.5" stroke-linecap="round" stroke-linejoin="round"/>
    <path vector-effect="non-scaling-stroke" d="M17.4089 8.9201L14.7944 3.6001" stroke="currentColor" stroke-width="1.5" stroke-linecap="round" stroke-linejoin="round"/>
    <path vector-effect="non-scaling-stroke" d="M6.95117 8.9201L9.56563 3.6001" stroke="currentColor" stroke-width="1.5" stroke-linecap="round" stroke-linejoin="round"/>
</symbol>
<symbol id="icon-cart" viewBox="0 0 24 24" fill="none">
    <path vector-effect="non-scaling-stroke" d="M3 4L3.23547 4.07849C4.40884 4.46962 4.99552 4.66517 5.33108 5.13075C5.66665 5.59632 5.66665 6.21473 5.66665 7.45157V9.77775C5.66665 12.2919 5.66665 13.5489 6.4477 14.33C7.22874 15.111 8.48581 15.111 11 15.111H18.111" stroke="currentColor" stroke-width="1.5" stroke-linecap="round"/>
    <path vector-effect="non-scaling-stroke" d="M7.88875 17.3333C8.62512 17.3333 9.22207 17.9302 9.22207 18.6666C9.22207 19.4029 8.62512 19.9999 7.88875 19.9999C7.15237 19.9999 6.55542 19.4029 6.55542 18.6666C6.55542 17.9302 7.15237 17.3333 7.88875 17.3333Z" stroke="currentColor" stroke-width="1.5"/>
    <path vector-effect="non-scaling-stroke" d="M15.8887 17.3333C16.6251 17.3333 17.2221 17.9301 17.2221 18.6666C17.2221 19.4029 16.6251 19.9999 15.8887 19.9999C15.1524 19.9999 14.5554 19.4029 14.5554 18.6666C14.5554 17.9301 15.1524 17.3333 15.8887 17.3333Z" stroke="currentColor" stroke-width="1.5"/>
    <path vector-effect="non-scaling-stroke" d="M5.66675 6.66675H15.8448C17.6715 6.66675 18.5847 6.66675 18.98 7.26609C19.3752 7.86543 19.0154 8.70491 18.2958 10.3839L17.9149 11.2728C17.5789 12.0566 17.411 12.4485 17.077 12.6688C16.743 12.8889 16.3166 12.8889 15.4638 12.8889H5.66675" stroke="currentColor" stroke-width="1.5"/>
</symbol>
<symbol id="icon-category" viewBox="0 0 24 24" fill="none">
    <path vector-effect="non-scaling-stroke" d="M6.4 10.4H8C9.6 10.4 10.4 9.6 10.4 8V6.4C10.4 4.8 9.6 4 8 4H6.4C4.8 4 4 4.8 4 6.4V8C4 9.6 4.8 10.4 6.4 10.4Z" stroke="currentColor" stroke-width="1.5" stroke-miterlimit="10" stroke-linecap="round" stroke-linejoin="round"/>
    <path vector-effect="non-scaling-stroke" d="M16.0001 10.4H17.6001C19.2001 10.4 20.0001 9.6 20.0001 8V6.4C20.0001 4.8 19.2001 4 17.6001 4H16.0001C14.4001 4 13.6001 4.8 13.6001 6.4V8C13.6001 9.6 14.4001 10.4 16.0001 10.4Z" stroke="currentColor" stroke-width="1.5" stroke-miterlimit="10" stroke-linecap="round" stroke-linejoin="round"/>
    <path vector-effect="non-scaling-stroke" d="M16.0001 20.0001H17.6001C19.2001 20.0001 20.0001 19.2001 20.0001 17.6001V16.0001C20.0001 14.4001 19.2001 13.6001 17.6001 13.6001H16.0001C14.4001 13.6001 13.6001 14.4001 13.6001 16.0001V17.6001C13.6001 19.2001 14.4001 20.0001 16.0001 20.0001Z" stroke="currentColor" stroke-width="1.5" stroke-miterlimit="10" stroke-linecap="round" stroke-linejoin="round"/>
    <path vector-effect="non-scaling-stroke" d="M6.4 20.0001H8C9.6 20.0001 10.4 19.2001 10.4 17.6001V16.0001C10.4 14.4001 9.6 13.6001 8 13.6001H6.4C4.8 13.6001 4 14.4001 4 16.0001V17.6001C4 19.2001 4.8 20.0001 6.4 20.0001Z" stroke="currentColor" stroke-width="1.5" stroke-miterlimit="10" stroke-linecap="round" stroke-linejoin="round"/>
</symbol>
<symbol id="icon-chevron_down" viewBox="0 0 24 24" fill="none">
    <path vector-effect="non-scaling-stroke" d="M19 9L12 15L5 9" stroke="currentColor" stroke-width="1.5" stroke-linecap="round" stroke-linejoin="round"/>
</symbol>
<symbol id="icon-chevron_left" viewBox="0 0 24 24" fill="none">
    <path vector-effect="non-scaling-stroke" d="M14 5L8 12L14 19" stroke="currentColor" stroke-width="1.5" stroke-linecap="round" stroke-linejoin="round"/>
</symbol>
<symbol id="icon-chevron_right" viewBox="0 0 24 24" fill="none">
    <path vector-effect="non-scaling-stroke" d="M10 5L16 12L10 19" stroke="currentColor" stroke-width="1.5" stroke-linecap="round" stroke-linejoin="round"/>
</symbol>
<symbol id="icon-chevron_up" viewBox="0 0 24 24" fill="none">
    <path vector-effect="non-scaling-stroke" d="M19 15L12 9L5 15" stroke="currentColor" stroke-width="1.5" stroke-linecap="round" stroke-linejoin="round"/>
</symbol>
<symbol id="icon-close" viewBox="0 0 24 24" fill="none">
    <path vector-effect="non-scaling-stroke" d="M6 18.0002L18 6.12085" stroke="currentColor" stroke-width="1.5" stroke-linecap="round" stroke-linejoin="round"/>
    <path vector-effect="non-scaling-stroke" d="M6 6L18 17.8794" stroke="currentColor" stroke-width="1.5" stroke-linecap="round" stroke-linejoin="round"/>
</symbol>
<symbol id="icon-coupon" viewBox="0 0 24 24" fill="none">
    <path vector-effect="non-scaling-stroke" d="M13.7802 5.3999H10.5802C7.56328 5.3999 6.0548 5.3999 5.11756 6.33481C4.47224 6.97853 4.27124 7.89237 4.20864 9.3815C4.19622 9.67681 4.19001 9.82447 4.24515 9.92298C4.3003 10.0215 4.52046 10.1444 4.96075 10.3904C5.44975 10.6634 5.78029 11.1852 5.78029 11.7839C5.78029 12.3826 5.44975 12.9044 4.96075 13.1774C4.52046 13.4234 4.3003 13.5463 4.24515 13.6448C4.19001 13.7433 4.19622 13.891 4.20864 14.1863C4.27124 15.6754 4.47224 16.5893 5.11756 17.233C6.0548 18.1679 7.56328 18.1679 10.5802 18.1679H13.7802C16.7971 18.1679 18.3056 18.1679 19.2428 17.233C19.8881 16.5893 20.0892 15.6754 20.1517 14.1863C20.1642 13.891 20.1704 13.7433 20.1153 13.6448C20.0601 13.5463 19.8399 13.4234 19.3996 13.1774C18.9106 12.9044 18.5801 12.3826 18.5801 11.7839C18.5801 11.1852 18.9106 10.6634 19.3996 10.3904C19.8399 10.1444 20.0601 10.0215 20.1153 9.92299C20.1704 9.82447 20.1642 9.67681 20.1517 9.3815C20.0892 7.89237 19.8881 6.97853 19.2428 6.33481C18.3056 5.3999 16.7971 5.3999 13.7802 5.3999Z" stroke="currentColor" stroke-width="1.5"/>
    <path vector-effect="non-scaling-stroke" d="M9.78613 14.1779L14.5741 9.38989" stroke="currentColor" stroke-width="1.5" stroke-linecap="round"/>
    <path vector-effect="non-scaling-stroke" d="M14.973 13.779C14.973 14.2197 14.6157 14.577 14.175 14.577C13.7342 14.577 13.377 14.2197 13.377 13.779C13.377 13.3382 13.7342 12.981 14.175 12.981C14.6157 12.981 14.973 13.3382 14.973 13.779Z" fill="currentColor"/>
    <path vector-effect="non-scaling-stroke" d="M10.9832 9.78897C10.9832 10.2297 10.6259 10.587 10.1852 10.587C9.74449 10.587 9.38721 10.2297 9.38721 9.78897C9.38721 9.34825 9.74449 8.99097 10.1852 8.99097C10.6259 8.99097 10.9832 9.34825 10.9832 9.78897Z" fill="currentColor"/>
</symbol>
<symbol id="icon-heart" viewBox="0 0 24 24" fill="none">
    <path vector-effect="non-scaling-stroke" stroke-width="1.5" stroke-linecap="round" stroke-linejoin="round" d="M 7.0157537,5.1119976 C 4.7699808,5.9082729 3.9971493,7.6915319 3.9923835,9.7553029 4.1221571,13.655741 9.5456629,17.239376 12,19.050283 14.454338,17.239376 19.877843,13.655741 20.007617,9.7553029 20.002817,7.6915319 19.23002,5.9082729 16.984247,5.1119976 15.18342,4.6007933 13.729103,5.306565 12.000001,6.7130049 10.270898,5.306565 8.8165799,4.6007933 7.0157537,5.1119976 Z" stroke="currentColor"/>
</symbol>
<symbol id="icon-link" viewBox="0 0 24 24" fill="none">
    <path vector-effect="non-scaling-stroke" d="M12.1715 10.2358C14.2179 12.2822 14.2179 15.5927 12.1715 17.6299C10.1252 19.6672 6.81468 19.6763 4.77744 17.6299C2.7402 15.5836 2.7311 12.2731 4.77744 10.2358" stroke="currentColor" stroke-width="1.5" stroke-linecap="round" stroke-linejoin="round"/>
    <path vector-effect="non-scaling-stroke" d="M9.92478 12.4822C7.79656 10.354 7.79656 6.89797 9.92478 4.76069C12.053 2.6234 15.509 2.6325 17.6463 4.76069C19.7836 6.88888 19.7745 10.3449 17.6463 12.4822" stroke="currentColor" stroke-width="1.5" stroke-linecap="round" stroke-linejoin="round"/>
</symbol>
<symbol id="icon-menu" viewBox="0 0 24 24" fill="none">
    <path vector-effect="non-scaling-stroke" d="M20 6H4" stroke="currentColor" stroke-width="1.5" stroke-linecap="round"/>
    <path vector-effect="non-scaling-stroke" d="M20 12H4" stroke="currentColor" stroke-width="1.5" stroke-linecap="round"/>
    <path vector-effect="non-scaling-stroke" d="M20 18H4" stroke="currentColor" stroke-width="1.5" stroke-linecap="round"/>
</symbol>
<symbol id="icon-photo" viewBox="0 0 24 24" fill="none">
    <path vector-effect="non-scaling-stroke" d="M10 20H14C16.809 20 18.2134 20 19.2223 19.3463C19.659 19.0633 20.034 18.6996 20.3259 18.2762C21 17.2979 21 15.9359 21 13.2121C21 10.4884 21 9.12641 20.3259 8.14809C20.034 7.72457 19.659 7.36092 19.2223 7.07794C18.574 6.65789 17.7624 6.50776 16.5198 6.4541C15.9268 6.4541 15.4163 6.01838 15.3 5.45454C15.1255 4.60879 14.3597 4 13.4703 4H10.5297C9.64024 4 8.87443 4.60879 8.7 5.45454C8.58371 6.01838 8.07317 6.4541 7.4802 6.4541C6.2376 6.50776 5.42599 6.65789 4.77772 7.07794C4.34095 7.36092 3.96595 7.72457 3.67412 8.14809C3 9.12641 3 10.4884 3 13.2121C3 15.9359 3 17.2979 3.67412 18.2762C3.96595 18.6996 4.34095 19.0633 4.77772 19.3463C5.78662 20 7.19107 20 10 20Z" stroke="currentColor" stroke-width="1.5"/>
    <path vector-effect="non-scaling-stroke" d="M14.8499 12.8888C14.8499 14.4295 13.5827 15.6944 11.9999 15.6944C10.4171 15.6944 9.1499 14.4295 9.1499 12.8888C9.1499 11.3481 10.4171 10.0833 11.9999 10.0833C13.5827 10.0833 14.8499 11.3481 14.8499 12.8888Z" stroke="currentColor" stroke-width="1.5"/>
    <path vector-effect="non-scaling-stroke" d="M16.9502 10.2222H18.3002" stroke="currentColor" stroke-width="1.5" stroke-linecap="round"/>
</symbol>
<symbol id="icon-search" viewBox="0 0 24 24" fill="none">
    <path vector-effect="non-scaling-stroke" d="M4 11C4 11.9193 4.18106 12.8295 4.53284 13.6788C4.88463 14.5281 5.40024 15.2997 6.05025 15.9497C6.70026 16.5998 7.47194 17.1154 8.32122 17.4672C9.1705 17.8189 10.0807 18 11 18C11.9193 18 12.8295 17.8189 13.6788 17.4672C14.5281 17.1154 15.2997 16.5998 15.9497 15.9497C16.5998 15.2997 17.1154 14.5281 17.4672 13.6788C17.8189 12.8295 18 11.9193 18 11C18 10.0807 17.8189 9.1705 17.4672 8.32122C17.1154 7.47194 16.5998 6.70026 15.9497 6.05025C15.2997 5.40024 14.5281 4.88463 13.6788 4.53284C12.8295 4.18106 11.9193 4 11 4C10.0807 4 9.1705 4.18106 8.32122 4.53284C7.47194 4.88463 6.70026 5.40024 6.05025 6.05025C5.40024 6.70026 4.88463 7.47194 4.53284 8.32122C4.18106 9.1705 4 10.0807 4 11Z" stroke="currentColor" stroke-width="1.5" stroke-linecap="round" stroke-linejoin="round"/>
    <path vector-effect="non-scaling-stroke" d="M20 20L16 16" stroke="currentColor" stroke-width="1.5" stroke-linecap="round" stroke-linejoin="round"/>
</symbol>
<symbol id="icon-user" viewBox="0 0 24 24" fill="none">
    <path vector-effect="non-scaling-stroke" d="M12.0001 12C13.3256 12 14.4001 10.9254 14.4001 9.59995C14.4001 8.27447 13.3256 7.19995 12.0001 7.19995C10.6746 7.19995 9.6001 8.27447 9.6001 9.59995C9.6001 10.9254 10.6746 12 12.0001 12Z" stroke="currentColor" stroke-width="1.5"/>
    <path vector-effect="non-scaling-stroke" d="M12 20C16.4183 20 20 16.4183 20 12C20 7.58172 16.4183 4 12 4C7.58172 4 4 7.58172 4 12C4 16.4183 7.58172 20 12 20Z" stroke="currentColor" stroke-width="1.5"/>
    <path vector-effect="non-scaling-stroke" d="M16.7753 18.3999C16.648 16.0867 15.9398 14.3999 11.9999 14.3999C8.06017 14.3999 7.35193 16.0867 7.22461 18.3999" stroke="currentColor" stroke-width="1.5" stroke-linecap="round"/>
</symbol>
<symbol id="icon-users" viewBox="0 0 24 24" fill="none">
    <path vector-effect="non-scaling-stroke" d="M9.89479 10.7368C11.7551 10.7368 13.2632 9.22875 13.2632 7.36842C13.2632 5.50809 11.7551 4 9.89479 4C8.03446 4 6.52637 5.50809 6.52637 7.36842C6.52637 9.22875 8.03446 10.7368 9.89479 10.7368Z" stroke="currentColor" stroke-width="1.5"/>
    <path vector-effect="non-scaling-stroke" d="M14.9473 9.89467C16.3425 9.89467 17.4736 8.7636 17.4736 7.36836C17.4736 5.97311 16.3425 4.84204 14.9473 4.84204" stroke="currentColor" stroke-width="1.5" stroke-linecap="round"/>
    <path vector-effect="non-scaling-stroke" d="M9.89474 20C13.1503 20 15.7895 18.4919 15.7895 16.6316C15.7895 14.7713 13.1503 13.2632 9.89474 13.2632C6.63916 13.2632 4 14.7713 4 16.6316C4 18.4919 6.63916 20 9.89474 20Z" stroke="currentColor" stroke-width="1.5"/>
    <path vector-effect="non-scaling-stroke" d="M17.4736 14.1052C18.9509 14.4292 19.9999 15.2496 19.9999 16.2105C19.9999 17.0773 19.1463 17.8298 17.8947 18.2066" stroke="currentColor" stroke-width="1.5" stroke-linecap="round"/>
</symbol>
</defs>
</svg>
