<svg width="24" height="24" viewBox="0 0 24 24" fill="none" xmlns="http://www.w3.org/2000/svg">
<path d="M10 20H14C16.809 20 18.2134 20 19.2223 19.3463C19.659 19.0633 20.034 18.6996 20.3259 18.2762C21 17.2979 21 15.9359 21 13.2121C21 10.4884 21 9.12641 20.3259 8.14809C20.034 7.72457 19.659 7.36092 19.2223 7.07794C18.574 6.65789 17.7624 6.50776 16.5198 6.4541C15.9268 6.4541 15.4163 6.01838 15.3 5.45454C15.1255 4.60879 14.3597 4 13.4703 4H10.5297C9.64024 4 8.87443 4.60879 8.7 5.45454C8.58371 6.01838 8.07317 6.4541 7.4802 6.4541C6.2376 6.50776 5.42599 6.65789 4.77772 7.07794C4.34095 7.36092 3.96595 7.72457 3.67412 8.14809C3 9.12641 3 10.4884 3 13.2121C3 15.9359 3 17.2979 3.67412 18.2762C3.96595 18.6996 4.34095 19.0633 4.77772 19.3463C5.78662 20 7.19107 20 10 20Z" stroke="#0061AF" stroke-width="1.5"/>
<path d="M14.8499 12.8891C14.8499 14.4298 13.5827 15.6946 11.9999 15.6946C10.4171 15.6946 9.1499 14.4298 9.1499 12.8891C9.1499 11.3483 10.4171 10.0835 11.9999 10.0835C13.5827 10.0835 14.8499 11.3483 14.8499 12.8891Z" stroke="#0061AF" stroke-width="1.5"/>
<path d="M16.95 10.2222H18.3" stroke="#0061AF" stroke-width="1.5" stroke-linecap="round"/>
</svg>
