<svg width="24" height="24" viewBox="0 0 24 24" fill="none" xmlns="http://www.w3.org/2000/svg">
<rect x="2" y="2" width="20" height="20" rx="4" fill="#FF4200"/>
<path d="M8.6783 7.94943C8.6783 8.56516 8.12227 9.06439 7.43632 9.06439C6.75052 9.06439 6.19434 8.56516 6.19434 7.94943C6.19434 7.33371 6.75052 6.83447 7.43632 6.83447C8.12227 6.83447 8.6783 7.33371 8.6783 7.94943Z" fill="white"/>
<path d="M5.62896 10.2499L6.39109 9.06445C6.39109 9.06445 7.46361 9.89697 7.78834 10.1794C8.11292 10.4617 8.6917 10.9415 8.6775 11.7177C8.6633 12.4939 8.4375 13.1715 8.25399 13.6373C8.07063 14.1029 6.87094 16.5586 6.87094 16.5586L5.03613 15.4154C5.03613 15.4154 6.80071 13.7832 7.47781 12.7904C7.68956 12.4799 7.94345 11.6614 7.22376 11.2379C6.50392 10.8145 5.62896 10.2499 5.62896 10.2499Z" fill="white"/>
<path d="M8.67871 10.0383C8.67871 10.0383 9.68069 9.38912 10.6688 6.6792C10.9509 6.77798 12.3764 7.15905 12.3764 7.15905L11.9106 8.01996C11.9106 8.01996 14.0419 7.3708 15.8766 7.3708C15.8766 7.3708 16.8787 7.32851 17.655 7.58255C18.4312 7.8366 19.2217 8.35889 19.4193 9.20561C19.6168 10.0523 19.8285 12.8752 19.4333 15.4296C19.4333 15.4296 19.3486 16.0225 18.7982 16.5447C18.2478 17.0668 17.5845 17.3209 16.413 17.3209C15.2416 17.3209 14.6205 17.0951 14.6205 17.0951L14.8605 16.107C14.8605 16.107 15.5804 16.3752 16.1448 16.3752C16.7094 16.3752 17.1892 16.1354 17.4433 15.839C17.4433 15.839 17.6692 15.5002 17.6833 15.218C17.6973 14.9357 17.7115 9.51615 17.655 9.33263C17.5985 9.14912 17.528 8.45752 16.6529 8.2882C15.7779 8.11889 15.0863 8.23171 14.8746 8.27416C14.663 8.31645 13.3363 8.64103 12.6729 8.90912C12.9269 8.99385 13.421 9.12087 13.421 9.12087C13.421 9.12087 13.1952 9.58667 12.7859 10.0383C13.3505 10.0242 17.1045 10.0383 17.1045 10.0383V10.8851H14.6912V12.0141H17.0764V12.861H14.6912V14.6534C14.6912 14.6534 15.0863 14.6534 15.665 14.2018C15.6227 13.8912 15.6367 13.8488 15.4956 13.3972C15.8627 13.3126 16.5966 13.0586 16.5966 13.0586L17.514 15.3309L16.1448 15.8671L15.8908 14.9497C15.8908 14.9497 15.4816 15.4155 14.4795 15.712C13.0842 16.1247 12.1932 16.1071 11.9532 16.0931C11.9532 16.0931 11.2758 16.121 10.8665 15.9376C10.457 15.7543 9.86436 15.3309 9.86436 14.117C9.86436 13.7079 9.96314 13.3691 9.96314 13.3691L11.685 13.3832C11.685 13.3832 11.6004 13.9902 11.6004 14.1453C11.6004 14.3006 11.4732 14.9639 12.7152 14.9497C12.7152 14.0607 12.7011 12.8468 12.7011 12.8468L10.2454 12.8328V11.9859H12.6871V10.9132H12.066C12.066 10.9132 11.3886 11.5485 11.0076 11.9296L10.3019 11.3085C10.3019 11.3085 11.1163 10.4618 11.6709 9.23385C11.3463 9.36087 10.7818 9.61492 10.7818 9.61492C10.7818 9.61492 10.3865 10.123 9.89261 10.6451C9.53978 10.4476 8.67872 10.0383 8.67872 10.0383" fill="white"/>
</svg>
