<svg width="48" height="48" viewBox="0 0 48 48" fill="none" xmlns="http://www.w3.org/2000/svg">
<path d="M24.0002 24C26.2094 24 28.0002 22.2091 28.0002 20C28.0002 17.7909 26.2094 16 24.0002 16C21.7911 16 20.0002 17.7909 20.0002 20C20.0002 22.2091 21.7911 24 24.0002 24Z" stroke="#0061AF" stroke-width="1.5"/>
<path d="M24.0001 37.3332C31.3639 37.3332 37.3334 31.3636 37.3334 23.9998C37.3334 16.636 31.3639 10.6665 24.0001 10.6665C16.6363 10.6665 10.6667 16.636 10.6667 23.9998C10.6667 31.3636 16.6363 37.3332 24.0001 37.3332Z" stroke="#0061AF" stroke-width="1.5"/>
<path d="M31.9588 34.6667C31.7467 30.8113 30.5663 28 23.9999 28C17.4336 28 16.2532 30.8113 16.041 34.6667" stroke="#0061AF" stroke-width="1.5" stroke-linecap="round"/>
</svg>
