<svg width="24" height="24" viewBox="0 0 24 24" fill="none" xmlns="http://www.w3.org/2000/svg">
<path d="M4.82059 13.5814C4.19446 10.6085 3.8814 9.12216 4.66621 8.13445C5.45103 7.14673 6.94517 7.14673 9.93344 7.14673H14.4269C17.4153 7.14673 18.9093 7.14673 19.6942 8.13445C20.479 9.12216 20.1659 10.6085 19.5398 13.5814L19.1663 15.3548C18.7419 17.3697 18.5297 18.3773 17.8107 18.9687C17.0916 19.5601 16.0789 19.5601 14.0534 19.5601H10.3069C8.28148 19.5601 7.26875 19.5601 6.54971 18.9687C5.83067 18.3773 5.61848 17.3697 5.19409 15.3548L4.82059 13.5814Z" stroke="#323232" stroke-width="1.5"/>
<path d="M4.33691 10.6934H20.0237" stroke="#323232" stroke-width="1.5" stroke-linecap="round" stroke-linejoin="round"/>
<path d="M17.4089 8.9201L14.7944 3.6001" stroke="#323232" stroke-width="1.5" stroke-linecap="round" stroke-linejoin="round"/>
<path d="M6.95117 8.9201L9.56563 3.6001" stroke="#323232" stroke-width="1.5" stroke-linecap="round" stroke-linejoin="round"/>
</svg>
