<svg width="24" height="24" viewBox="0 0 24 24" fill="none" xmlns="http://www.w3.org/2000/svg">
<path d="M3 4L3.23547 4.07849C4.40884 4.46962 4.99552 4.66517 5.33108 5.13075C5.66665 5.59632 5.66665 6.21473 5.66665 7.45157V9.77775C5.66665 12.2919 5.66665 13.5489 6.4477 14.33C7.22874 15.111 8.48581 15.111 11 15.111H18.111" stroke="#323232" stroke-width="1.5" stroke-linecap="round"/>
<path d="M7.88875 17.3333C8.62512 17.3333 9.22207 17.9302 9.22207 18.6666C9.22207 19.4029 8.62512 19.9999 7.88875 19.9999C7.15237 19.9999 6.55542 19.4029 6.55542 18.6666C6.55542 17.9302 7.15237 17.3333 7.88875 17.3333Z" stroke="#323232" stroke-width="1.5"/>
<path d="M15.8887 17.3333C16.6251 17.3333 17.2221 17.9301 17.2221 18.6666C17.2221 19.4029 16.6251 19.9999 15.8887 19.9999C15.1524 19.9999 14.5554 19.4029 14.5554 18.6666C14.5554 17.9301 15.1524 17.3333 15.8887 17.3333Z" stroke="#323232" stroke-width="1.5"/>
<path d="M5.66675 6.66675H15.8448C17.6715 6.66675 18.5847 6.66675 18.98 7.26609C19.3752 7.86543 19.0154 8.70491 18.2958 10.3839L17.9149 11.2728C17.5789 12.0566 17.411 12.4485 17.077 12.6688C16.743 12.8889 16.3166 12.8889 15.4638 12.8889H5.66675" stroke="#323232" stroke-width="1.5"/>
</svg>
