<svg width="24" height="24" viewBox="0 0 24 24" fill="none" xmlns="http://www.w3.org/2000/svg">
<path d="M13.7802 5.3999H10.5802C7.56328 5.3999 6.0548 5.3999 5.11756 6.33481C4.47224 6.97853 4.27124 7.89237 4.20864 9.3815C4.19622 9.67681 4.19001 9.82447 4.24515 9.92298C4.3003 10.0215 4.52046 10.1444 4.96075 10.3904C5.44975 10.6634 5.78029 11.1852 5.78029 11.7839C5.78029 12.3826 5.44975 12.9044 4.96075 13.1774C4.52046 13.4234 4.3003 13.5463 4.24515 13.6448C4.19001 13.7433 4.19622 13.891 4.20864 14.1863C4.27124 15.6754 4.47224 16.5893 5.11756 17.233C6.0548 18.1679 7.56328 18.1679 10.5802 18.1679H13.7802C16.7971 18.1679 18.3056 18.1679 19.2428 17.233C19.8881 16.5893 20.0892 15.6754 20.1517 14.1863C20.1642 13.891 20.1704 13.7433 20.1153 13.6448C20.0601 13.5463 19.8399 13.4234 19.3996 13.1774C18.9106 12.9044 18.5801 12.3826 18.5801 11.7839C18.5801 11.1852 18.9106 10.6634 19.3996 10.3904C19.8399 10.1444 20.0601 10.0215 20.1153 9.92299C20.1704 9.82447 20.1642 9.67681 20.1517 9.3815C20.0892 7.89237 19.8881 6.97853 19.2428 6.33481C18.3056 5.3999 16.7971 5.3999 13.7802 5.3999Z" stroke="#323232" stroke-width="1.5"/>
<path d="M9.78613 14.1779L14.5741 9.38989" stroke="#323232" stroke-width="1.5" stroke-linecap="round"/>
<path d="M14.973 13.779C14.973 14.2197 14.6157 14.577 14.175 14.577C13.7342 14.577 13.377 14.2197 13.377 13.779C13.377 13.3382 13.7342 12.981 14.175 12.981C14.6157 12.981 14.973 13.3382 14.973 13.779Z" fill="#323232"/>
<path d="M10.9832 9.78897C10.9832 10.2297 10.6259 10.587 10.1852 10.587C9.74449 10.587 9.38721 10.2297 9.38721 9.78897C9.38721 9.34825 9.74449 8.99097 10.1852 8.99097C10.6259 8.99097 10.9832 9.34825 10.9832 9.78897Z" fill="#323232"/>
</svg>
