<svg width="24" height="24" viewBox="0 0 24 24" fill="none" xmlns="http://www.w3.org/2000/svg">
<path d="M11.9982 6.80645L11.4959 7.36336C11.7813 7.62081 12.2151 7.62081 12.5006 7.36336L11.9982 6.80645ZM4 9.51613H4.75V9.51611L4 9.51613ZM5.24751 13.129L4.62038 13.5404L5.24751 13.129ZM18.6584 13.129L18.0313 12.7177L18.6584 13.129ZM19.9964 9.51613L19.2469 9.48853L19.9964 9.51613ZM11.9982 6.80645C12.5006 6.24954 12.5004 6.24944 12.5003 6.24933C12.5003 6.24928 12.5001 6.24917 12.5 6.24908C12.4998 6.2489 12.4996 6.24869 12.4993 6.24845C12.4988 6.24798 12.4982 6.24739 12.4974 6.2467C12.4959 6.24532 12.4938 6.2435 12.4913 6.24127C12.4863 6.2368 12.4794 6.23065 12.4706 6.22293C12.453 6.20751 12.4281 6.1858 12.3964 6.1587C12.3331 6.10455 12.2423 6.02864 12.1291 5.93821C11.9035 5.75799 11.5846 5.51686 11.2116 5.27442C10.5055 4.81536 9.45585 4.25 8.44345 4.25V5.75C8.98313 5.75 9.71086 6.08787 10.3941 6.53203C10.7158 6.7412 10.9945 6.95168 11.1929 7.11018C11.2917 7.1891 11.3696 7.25432 11.4218 7.29896C11.4479 7.32126 11.4675 7.33836 11.4801 7.34939C11.4864 7.35491 11.4909 7.35891 11.4935 7.36127C11.4949 7.36246 11.4957 7.36323 11.4961 7.36358C11.4963 7.36376 11.4964 7.36383 11.4963 7.3638C11.4963 7.36378 11.4963 7.36373 11.4962 7.36366C11.4962 7.36362 11.4961 7.36355 11.4961 7.36353C11.496 7.36345 11.4959 7.36336 11.9982 6.80645ZM8.44345 4.25C5.58748 4.25 3.24993 6.38005 3.25 9.51614L4.75 9.51611C4.74995 7.23285 6.39132 5.75 8.44345 5.75V4.25ZM3.25 9.51613C3.25 10.8792 3.7758 12.2528 4.62038 13.5404L5.87464 12.7177C5.13175 11.5851 4.75 10.4958 4.75 9.51613H3.25ZM4.62038 13.5404C4.9134 13.9871 5.4674 14.5898 6.09334 15.2102C6.73391 15.845 7.49665 16.5438 8.24689 17.1927C8.99624 17.8409 9.74278 18.4479 10.3513 18.8966C10.6541 19.1199 10.9346 19.3129 11.1708 19.4535C11.2881 19.5234 11.4081 19.5885 11.5232 19.6385C11.6149 19.6783 11.7935 19.75 11.9982 19.75V18.25C12.1184 18.25 12.178 18.2875 12.1205 18.2625C12.0863 18.2477 12.0267 18.2174 11.9381 18.1647C11.7626 18.0602 11.5267 17.8997 11.2416 17.6894C10.6744 17.2711 9.95947 16.6908 9.22822 16.0583C8.49787 15.4265 7.76089 14.751 7.14924 14.1448C6.52296 13.5241 6.07223 13.0189 5.87464 12.7177L4.62038 13.5404ZM11.9982 19.75C12.2037 19.75 12.3823 19.6778 12.4744 19.6375C12.5894 19.5871 12.7088 19.5215 12.8251 19.4515C13.0592 19.3104 13.3365 19.1169 13.6351 18.8935C14.2353 18.4444 14.9706 17.8372 15.7085 17.189C16.4474 16.5399 17.1986 15.8412 17.8303 15.2066C18.4482 14.5858 18.9942 13.9845 19.2855 13.5404L18.0313 12.7177C17.832 13.0215 17.3845 13.5282 16.7672 14.1484C16.1636 14.7548 15.4377 15.4304 14.7186 16.062C13.9985 16.6946 13.2949 17.2746 12.7364 17.6925C12.4556 17.9027 12.2235 18.0627 12.0509 18.1667C11.9638 18.2192 11.9055 18.2491 11.8725 18.2635C11.8166 18.288 11.8771 18.25 11.9982 18.25V19.75ZM19.2855 13.5404C19.8434 12.6899 20.6833 11.2435 20.7459 9.54373L19.2469 9.48853C19.2002 10.7565 18.5602 11.9114 18.0313 12.7177L19.2855 13.5404ZM20.7459 9.54373C20.8655 6.29723 18.3743 4.25 15.553 4.25V5.75C17.6398 5.75 19.3311 7.20277 19.2469 9.48853L20.7459 9.54373ZM15.553 4.25C14.5406 4.25 13.4909 4.81536 12.7848 5.27442C12.4119 5.51686 12.0929 5.75799 11.8673 5.93821C11.7541 6.02864 11.6634 6.10455 11.6 6.1587C11.5683 6.1858 11.5434 6.20751 11.5258 6.22293C11.5171 6.23065 11.5101 6.2368 11.5051 6.24127C11.5026 6.2435 11.5006 6.24532 11.499 6.2467C11.4983 6.24739 11.4976 6.24798 11.4971 6.24845C11.4968 6.24869 11.4966 6.2489 11.4964 6.24908C11.4963 6.24917 11.4962 6.24928 11.4961 6.24933C11.496 6.24944 11.4959 6.24954 11.9982 6.80645C12.5006 7.36336 12.5005 7.36345 12.5004 7.36353C12.5003 7.36355 12.5003 7.36362 12.5002 7.36366C12.5001 7.36373 12.5001 7.36378 12.5001 7.3638C12.5 7.36383 12.5001 7.36376 12.5003 7.36358C12.5007 7.36323 12.5016 7.36246 12.5029 7.36127C12.5056 7.35891 12.5101 7.35491 12.5163 7.34939C12.5289 7.33836 12.5485 7.32126 12.5746 7.29896C12.6268 7.25432 12.7047 7.1891 12.8035 7.11018C13.0019 6.95168 13.2806 6.7412 13.6024 6.53203C14.2856 6.08787 15.0133 5.75 15.553 5.75V4.25Z" fill="#323232"/>
</svg>
