<svg width="24" height="24" viewBox="0 0 24 24" fill="none" xmlns="http://www.w3.org/2000/svg">
<path d="M12.0001 12C13.3256 12 14.4001 10.9254 14.4001 9.59995C14.4001 8.27447 13.3256 7.19995 12.0001 7.19995C10.6746 7.19995 9.6001 8.27447 9.6001 9.59995C9.6001 10.9254 10.6746 12 12.0001 12Z" stroke="#323232" stroke-width="1.5"/>
<path d="M12 20C16.4183 20 20 16.4183 20 12C20 7.58172 16.4183 4 12 4C7.58172 4 4 7.58172 4 12C4 16.4183 7.58172 20 12 20Z" stroke="#323232" stroke-width="1.5"/>
<path d="M16.7753 18.3999C16.648 16.0867 15.9398 14.3999 11.9999 14.3999C8.06017 14.3999 7.35193 16.0867 7.22461 18.3999" stroke="#323232" stroke-width="1.5" stroke-linecap="round"/>
</svg>
