<svg width="24" height="24" viewBox="0 0 24 24" fill="none" xmlns="http://www.w3.org/2000/svg">
<path d="M9.89479 10.7368C11.7551 10.7368 13.2632 9.22875 13.2632 7.36842C13.2632 5.50809 11.7551 4 9.89479 4C8.03446 4 6.52637 5.50809 6.52637 7.36842C6.52637 9.22875 8.03446 10.7368 9.89479 10.7368Z" stroke="#323232" stroke-width="1.5"/>
<path d="M14.9473 9.89467C16.3425 9.89467 17.4736 8.7636 17.4736 7.36836C17.4736 5.97311 16.3425 4.84204 14.9473 4.84204" stroke="#323232" stroke-width="1.5" stroke-linecap="round"/>
<path d="M9.89474 20C13.1503 20 15.7895 18.4919 15.7895 16.6316C15.7895 14.7713 13.1503 13.2632 9.89474 13.2632C6.63916 13.2632 4 14.7713 4 16.6316C4 18.4919 6.63916 20 9.89474 20Z" stroke="#323232" stroke-width="1.5"/>
<path d="M17.4736 14.1052C18.9509 14.4292 19.9999 15.2496 19.9999 16.2105C19.9999 17.0773 19.1463 17.8298 17.8947 18.2066" stroke="#323232" stroke-width="1.5" stroke-linecap="round"/>
</svg>
